<mxfile host="app.diagrams.net" agent="Mozilla/5.0 (Windows NT 10.0; Win64; x64) AppleWebKit/537.36 (KHTML, like Gecko) Chrome/133.0.0.0 Safari/537.36" version="26.0.16">
  <diagram id="IAWx1fr4JjzV1SWlqMux" name="Page-1">
    <mxGraphModel dx="862" dy="422" grid="0" gridSize="10" guides="1" tooltips="1" connect="1" arrows="1" fold="1" page="1" pageScale="1" pageWidth="827" pageHeight="1169" math="0" shadow="0">
      <root>
        <mxCell id="0" />
        <mxCell id="1" parent="0" />
        <mxCell id="NeLMezr21SVfmH-1DF2Q-1" value="" style="rounded=0;whiteSpace=wrap;html=1;fillColor=#ffe6cc;strokeColor=#d79b00;opacity=40;" vertex="1" parent="1">
          <mxGeometry x="237.38" y="45" width="336.75" height="159" as="geometry" />
        </mxCell>
        <mxCell id="NeLMezr21SVfmH-1DF2Q-2" style="edgeStyle=none;shape=connector;rounded=0;orthogonalLoop=1;jettySize=auto;html=1;exitX=1;exitY=0.5;exitDx=0;exitDy=0;entryX=0;entryY=0;entryDx=0;entryDy=0;strokeColor=default;align=center;verticalAlign=middle;fontFamily=Helvetica;fontSize=11;fontColor=default;labelBackgroundColor=default;startFill=0;endArrow=classicThin;endFill=1;" edge="1" parent="1" source="NeLMezr21SVfmH-1DF2Q-3" target="NeLMezr21SVfmH-1DF2Q-22">
          <mxGeometry relative="1" as="geometry" />
        </mxCell>
        <mxCell id="NeLMezr21SVfmH-1DF2Q-3" value="&lt;div&gt;&lt;span style=&quot;font-family: &amp;quot;Times New Roman&amp;quot;; background-color: transparent; color: light-dark(rgb(0, 0, 0), rgb(255, 255, 255));&quot;&gt;x&lt;/span&gt;&lt;span style=&quot;font-family: &amp;quot;Times New Roman&amp;quot;; background-color: transparent; color: light-dark(rgb(0, 0, 0), rgb(255, 255, 255)); font-size: 10px;&quot;&gt;&lt;sub&gt;1&lt;/sub&gt;&lt;/span&gt;&lt;span style=&quot;font-family: &amp;quot;Times New Roman&amp;quot;; background-color: transparent; color: light-dark(rgb(0, 0, 0), rgb(255, 255, 255));&quot;&gt;输入要素&lt;/span&gt;&lt;/div&gt;" style="text;html=1;align=center;verticalAlign=middle;whiteSpace=wrap;rounded=0;" vertex="1" parent="1">
          <mxGeometry x="34" y="127" width="81" height="30" as="geometry" />
        </mxCell>
        <mxCell id="NeLMezr21SVfmH-1DF2Q-4" style="edgeStyle=orthogonalEdgeStyle;rounded=0;orthogonalLoop=1;jettySize=auto;html=1;exitX=1;exitY=0.5;exitDx=0;exitDy=0;entryX=0;entryY=0.5;entryDx=0;entryDy=0;" edge="1" parent="1" source="NeLMezr21SVfmH-1DF2Q-5" target="NeLMezr21SVfmH-1DF2Q-9">
          <mxGeometry relative="1" as="geometry" />
        </mxCell>
        <mxCell id="NeLMezr21SVfmH-1DF2Q-5" value="&lt;span style=&quot;color: rgba(0, 0, 0, 0.87); font-family: Roboto, Helvetica, Arial, sans-serif; letter-spacing: 0.12864px; text-align: start; background-color: rgb(255, 255, 255);&quot;&gt;&lt;font style=&quot;font-size: 10px;&quot;&gt;在时间轴上滑动卷积&lt;/font&gt;&lt;/span&gt;" style="rounded=1;whiteSpace=wrap;html=1;" vertex="1" parent="1">
          <mxGeometry x="301.5" y="106" width="99" height="27" as="geometry" />
        </mxCell>
        <mxCell id="NeLMezr21SVfmH-1DF2Q-6" style="edgeStyle=orthogonalEdgeStyle;rounded=0;orthogonalLoop=1;jettySize=auto;html=1;exitX=1;exitY=0.5;exitDx=0;exitDy=0;entryX=0;entryY=0.5;entryDx=0;entryDy=0;" edge="1" parent="1" source="NeLMezr21SVfmH-1DF2Q-7" target="NeLMezr21SVfmH-1DF2Q-12">
          <mxGeometry relative="1" as="geometry" />
        </mxCell>
        <mxCell id="NeLMezr21SVfmH-1DF2Q-7" value="&lt;span style=&quot;color: rgba(0, 0, 0, 0.87); font-family: Roboto, Helvetica, Arial, sans-serif; letter-spacing: 0.12864px; text-align: start; background-color: rgb(255, 255, 255);&quot;&gt;&lt;font style=&quot;font-size: 10px;&quot;&gt;在时间轴上滑动卷积&lt;/font&gt;&lt;/span&gt;" style="rounded=1;whiteSpace=wrap;html=1;" vertex="1" parent="1">
          <mxGeometry x="301.5" y="148" width="102" height="27" as="geometry" />
        </mxCell>
        <mxCell id="NeLMezr21SVfmH-1DF2Q-8" style="edgeStyle=orthogonalEdgeStyle;rounded=0;orthogonalLoop=1;jettySize=auto;html=1;exitX=1;exitY=0.5;exitDx=0;exitDy=0;entryX=0;entryY=0.5;entryDx=0;entryDy=0;" edge="1" parent="1" source="NeLMezr21SVfmH-1DF2Q-9" target="NeLMezr21SVfmH-1DF2Q-16">
          <mxGeometry relative="1" as="geometry" />
        </mxCell>
        <mxCell id="NeLMezr21SVfmH-1DF2Q-9" value="&lt;font style=&quot;font-size: 17px;&quot;&gt;+&lt;/font&gt;" style="ellipse;whiteSpace=wrap;html=1;aspect=fixed;" vertex="1" parent="1">
          <mxGeometry x="432.5" y="105" width="29" height="29" as="geometry" />
        </mxCell>
        <mxCell id="NeLMezr21SVfmH-1DF2Q-10" value="加权求和" style="text;html=1;align=center;verticalAlign=middle;whiteSpace=wrap;rounded=0;" vertex="1" parent="1">
          <mxGeometry x="452.5" y="76" width="60" height="30" as="geometry" />
        </mxCell>
        <mxCell id="NeLMezr21SVfmH-1DF2Q-11" style="edgeStyle=orthogonalEdgeStyle;rounded=0;orthogonalLoop=1;jettySize=auto;html=1;exitX=1;exitY=0.5;exitDx=0;exitDy=0;entryX=0;entryY=0.5;entryDx=0;entryDy=0;" edge="1" parent="1" source="NeLMezr21SVfmH-1DF2Q-12" target="NeLMezr21SVfmH-1DF2Q-16">
          <mxGeometry relative="1" as="geometry" />
        </mxCell>
        <mxCell id="NeLMezr21SVfmH-1DF2Q-12" value="&lt;span style=&quot;font-size: 17px;&quot;&gt;σ&lt;/span&gt;" style="ellipse;whiteSpace=wrap;html=1;aspect=fixed;" vertex="1" parent="1">
          <mxGeometry x="432" y="147" width="29" height="29" as="geometry" />
        </mxCell>
        <mxCell id="NeLMezr21SVfmH-1DF2Q-13" value="&lt;font face=&quot;Times New Roman&quot;&gt;Sigmoid函数&lt;/font&gt;" style="text;html=1;align=center;verticalAlign=middle;whiteSpace=wrap;rounded=0;" vertex="1" parent="1">
          <mxGeometry x="408.5" y="171" width="76" height="30" as="geometry" />
        </mxCell>
        <mxCell id="NeLMezr21SVfmH-1DF2Q-14" value="残差连接" style="text;html=1;align=center;verticalAlign=middle;whiteSpace=wrap;rounded=0;" vertex="1" parent="1">
          <mxGeometry x="304.75" y="50" width="60" height="30" as="geometry" />
        </mxCell>
        <mxCell id="NeLMezr21SVfmH-1DF2Q-15" style="edgeStyle=orthogonalEdgeStyle;rounded=0;orthogonalLoop=1;jettySize=auto;html=1;exitX=1;exitY=0.5;exitDx=0;exitDy=0;entryX=0;entryY=0.5;entryDx=0;entryDy=0;" edge="1" parent="1" source="NeLMezr21SVfmH-1DF2Q-16" target="NeLMezr21SVfmH-1DF2Q-18">
          <mxGeometry relative="1" as="geometry" />
        </mxCell>
        <mxCell id="NeLMezr21SVfmH-1DF2Q-16" value="&lt;span style=&quot;scrollbar-color: auto; scrollbar-width: auto; --tw-border-spacing-x: 0; --tw-border-spacing-y: 0; --tw-translate-x: 0; --tw-translate-y: 0; --tw-rotate: 0; --tw-skew-x: 0; --tw-skew-y: 0; --tw-scale-x: 1; --tw-scale-y: 1; --tw-pan-x: ; --tw-pan-y: ; --tw-pinch-zoom: ; --tw-scroll-snap-strictness: proximity; --tw-gradient-from-position: ; --tw-gradient-via-position: ; --tw-gradient-to-position: ; --tw-ordinal: ; --tw-slashed-zero: ; --tw-numeric-figure: ; --tw-numeric-spacing: ; --tw-numeric-fraction: ; --tw-ring-inset: ; --tw-ring-offset-width: 0px; --tw-ring-offset-color: #fff; --tw-ring-color: #3b82f680; --tw-ring-offset-shadow: 0 0 #0000; --tw-ring-shadow: 0 0 #0000; --tw-shadow: 0 0 #0000; --tw-shadow-colored: 0 0 #0000; --tw-blur: ; --tw-brightness: ; --tw-contrast: ; --tw-grayscale: ; --tw-hue-rotate: ; --tw-invert: ; --tw-saturate: ; --tw-sepia: ; --tw-drop-shadow: ; --tw-backdrop-blur: ; --tw-backdrop-brightness: ; --tw-backdrop-contrast: ; --tw-backdrop-grayscale: ; --tw-backdrop-hue-rotate: ; --tw-backdrop-invert: ; --tw-backdrop-opacity: ; --tw-backdrop-saturate: ; --tw-backdrop-sepia: ; box-sizing: inherit; font-weight: 700; color: rgba(0, 0, 0, 0.87); font-family: Roboto, Helvetica, Arial, sans-serif; font-size: 13.7143px; letter-spacing: 0.12864px; text-align: start; background-color: rgb(255, 255, 255);&quot;&gt;⊙&lt;/span&gt;" style="ellipse;whiteSpace=wrap;html=1;aspect=fixed;" vertex="1" parent="1">
          <mxGeometry x="517.5" y="122" width="28" height="28" as="geometry" />
        </mxCell>
        <mxCell id="NeLMezr21SVfmH-1DF2Q-17" value="&lt;font face=&quot;Times New Roman&quot;&gt;Hadamard 积&lt;/font&gt;" style="text;html=1;align=center;verticalAlign=middle;whiteSpace=wrap;rounded=0;" vertex="1" parent="1">
          <mxGeometry x="489" y="97" width="85" height="30" as="geometry" />
        </mxCell>
        <mxCell id="NeLMezr21SVfmH-1DF2Q-18" value="&lt;font style=&quot;font-size: 11px;&quot; face=&quot;Times New Roman&quot;&gt;V(1,2...t)&lt;sup style=&quot;&quot;&gt;1&lt;/sup&gt;&lt;/font&gt;" style="ellipse;whiteSpace=wrap;html=1;aspect=fixed;" vertex="1" parent="1">
          <mxGeometry x="597.5" y="111" width="50" height="50" as="geometry" />
        </mxCell>
        <mxCell id="NeLMezr21SVfmH-1DF2Q-19" value="" style="group" vertex="1" connectable="0" parent="1">
          <mxGeometry x="166.5" y="100" width="21" height="84" as="geometry" />
        </mxCell>
        <mxCell id="NeLMezr21SVfmH-1DF2Q-20" value="&lt;font face=&quot;Times New Roman&quot; style=&quot;font-size: 10px;&quot;&gt;V&lt;sub style=&quot;&quot;&gt;1&lt;/sub&gt;&lt;sup style=&quot;&quot;&gt;1&lt;/sup&gt;&lt;/font&gt;" style="whiteSpace=wrap;html=1;aspect=fixed;fontFamily=Helvetica;fontSize=11;fontColor=default;labelBackgroundColor=default;" vertex="1" parent="NeLMezr21SVfmH-1DF2Q-19">
          <mxGeometry width="21" height="21" as="geometry" />
        </mxCell>
        <mxCell id="NeLMezr21SVfmH-1DF2Q-21" value="&lt;font face=&quot;Times New Roman&quot; style=&quot;font-size: 10px;&quot;&gt;V&lt;sub&gt;2&lt;/sub&gt;&lt;sup style=&quot;&quot;&gt;1&lt;/sup&gt;&lt;/font&gt;" style="whiteSpace=wrap;html=1;aspect=fixed;fontFamily=Helvetica;fontSize=11;fontColor=default;labelBackgroundColor=default;" vertex="1" parent="NeLMezr21SVfmH-1DF2Q-19">
          <mxGeometry y="21" width="21" height="21" as="geometry" />
        </mxCell>
        <mxCell id="NeLMezr21SVfmH-1DF2Q-22" value="&lt;font style=&quot;font-size: 13px;&quot;&gt;....&lt;/font&gt;" style="whiteSpace=wrap;html=1;aspect=fixed;fontFamily=Helvetica;fontSize=11;fontColor=default;labelBackgroundColor=default;" vertex="1" parent="NeLMezr21SVfmH-1DF2Q-19">
          <mxGeometry y="42" width="21" height="21" as="geometry" />
        </mxCell>
        <mxCell id="NeLMezr21SVfmH-1DF2Q-23" value="&lt;font face=&quot;Times New Roman&quot; style=&quot;font-size: 10px;&quot;&gt;V&lt;sub style=&quot;&quot;&gt;t&lt;/sub&gt;&lt;sup style=&quot;&quot;&gt;1&lt;/sup&gt;&lt;/font&gt;" style="whiteSpace=wrap;html=1;aspect=fixed;fontFamily=Helvetica;fontSize=11;fontColor=default;labelBackgroundColor=default;" vertex="1" parent="NeLMezr21SVfmH-1DF2Q-19">
          <mxGeometry y="63" width="21" height="21" as="geometry" />
        </mxCell>
        <mxCell id="NeLMezr21SVfmH-1DF2Q-24" style="edgeStyle=none;shape=connector;rounded=0;orthogonalLoop=1;jettySize=auto;html=1;exitX=1;exitY=0.5;exitDx=0;exitDy=0;entryX=0;entryY=0.5;entryDx=0;entryDy=0;strokeColor=default;align=center;verticalAlign=middle;fontFamily=Helvetica;fontSize=11;fontColor=default;labelBackgroundColor=default;startFill=0;endArrow=classicThin;endFill=1;" edge="1" parent="1" source="NeLMezr21SVfmH-1DF2Q-20" target="NeLMezr21SVfmH-1DF2Q-5">
          <mxGeometry relative="1" as="geometry" />
        </mxCell>
        <mxCell id="NeLMezr21SVfmH-1DF2Q-25" style="edgeStyle=none;shape=connector;rounded=0;orthogonalLoop=1;jettySize=auto;html=1;exitX=1;exitY=0.5;exitDx=0;exitDy=0;entryX=0;entryY=0.5;entryDx=0;entryDy=0;strokeColor=default;align=center;verticalAlign=middle;fontFamily=Helvetica;fontSize=11;fontColor=default;labelBackgroundColor=default;startFill=0;endArrow=classicThin;endFill=1;" edge="1" parent="1" source="NeLMezr21SVfmH-1DF2Q-21" target="NeLMezr21SVfmH-1DF2Q-5">
          <mxGeometry relative="1" as="geometry" />
        </mxCell>
        <mxCell id="NeLMezr21SVfmH-1DF2Q-26" style="edgeStyle=none;shape=connector;rounded=0;orthogonalLoop=1;jettySize=auto;html=1;exitX=1;exitY=0.5;exitDx=0;exitDy=0;entryX=0;entryY=0.5;entryDx=0;entryDy=0;strokeColor=default;align=center;verticalAlign=middle;fontFamily=Helvetica;fontSize=11;fontColor=default;labelBackgroundColor=default;startFill=0;endArrow=classicThin;endFill=1;" edge="1" parent="1" source="NeLMezr21SVfmH-1DF2Q-22" target="NeLMezr21SVfmH-1DF2Q-5">
          <mxGeometry relative="1" as="geometry" />
        </mxCell>
        <mxCell id="NeLMezr21SVfmH-1DF2Q-27" style="edgeStyle=none;shape=connector;rounded=0;orthogonalLoop=1;jettySize=auto;html=1;exitX=1;exitY=0.5;exitDx=0;exitDy=0;entryX=0;entryY=0.5;entryDx=0;entryDy=0;strokeColor=default;align=center;verticalAlign=middle;fontFamily=Helvetica;fontSize=11;fontColor=default;labelBackgroundColor=default;startFill=0;endArrow=classicThin;endFill=1;" edge="1" parent="1" source="NeLMezr21SVfmH-1DF2Q-23" target="NeLMezr21SVfmH-1DF2Q-5">
          <mxGeometry relative="1" as="geometry" />
        </mxCell>
        <mxCell id="NeLMezr21SVfmH-1DF2Q-28" style="edgeStyle=none;shape=connector;rounded=0;orthogonalLoop=1;jettySize=auto;html=1;exitX=1;exitY=0.5;exitDx=0;exitDy=0;entryX=0;entryY=0.5;entryDx=0;entryDy=0;strokeColor=default;align=center;verticalAlign=middle;fontFamily=Helvetica;fontSize=11;fontColor=default;labelBackgroundColor=default;startFill=0;endArrow=classicThin;endFill=1;" edge="1" parent="1" source="NeLMezr21SVfmH-1DF2Q-20" target="NeLMezr21SVfmH-1DF2Q-7">
          <mxGeometry relative="1" as="geometry" />
        </mxCell>
        <mxCell id="NeLMezr21SVfmH-1DF2Q-29" style="edgeStyle=none;shape=connector;rounded=0;orthogonalLoop=1;jettySize=auto;html=1;exitX=1;exitY=0.5;exitDx=0;exitDy=0;entryX=0;entryY=0.5;entryDx=0;entryDy=0;strokeColor=default;align=center;verticalAlign=middle;fontFamily=Helvetica;fontSize=11;fontColor=default;labelBackgroundColor=default;startFill=0;endArrow=classicThin;endFill=1;" edge="1" parent="1" source="NeLMezr21SVfmH-1DF2Q-21" target="NeLMezr21SVfmH-1DF2Q-7">
          <mxGeometry relative="1" as="geometry" />
        </mxCell>
        <mxCell id="NeLMezr21SVfmH-1DF2Q-30" style="edgeStyle=none;shape=connector;rounded=0;orthogonalLoop=1;jettySize=auto;html=1;exitX=1;exitY=0.5;exitDx=0;exitDy=0;entryX=0;entryY=0.5;entryDx=0;entryDy=0;strokeColor=default;align=center;verticalAlign=middle;fontFamily=Helvetica;fontSize=11;fontColor=default;labelBackgroundColor=default;startFill=0;endArrow=classicThin;endFill=1;" edge="1" parent="1" source="NeLMezr21SVfmH-1DF2Q-22" target="NeLMezr21SVfmH-1DF2Q-7">
          <mxGeometry relative="1" as="geometry" />
        </mxCell>
        <mxCell id="NeLMezr21SVfmH-1DF2Q-31" style="edgeStyle=none;shape=connector;rounded=0;orthogonalLoop=1;jettySize=auto;html=1;exitX=1;exitY=0.5;exitDx=0;exitDy=0;entryX=0;entryY=0.5;entryDx=0;entryDy=0;strokeColor=default;align=center;verticalAlign=middle;fontFamily=Helvetica;fontSize=11;fontColor=default;labelBackgroundColor=default;startFill=0;endArrow=classicThin;endFill=1;" edge="1" parent="1" source="NeLMezr21SVfmH-1DF2Q-23" target="NeLMezr21SVfmH-1DF2Q-7">
          <mxGeometry relative="1" as="geometry" />
        </mxCell>
        <mxCell id="NeLMezr21SVfmH-1DF2Q-32" style="edgeStyle=orthogonalEdgeStyle;rounded=0;orthogonalLoop=1;jettySize=auto;html=1;exitX=0.5;exitY=0;exitDx=0;exitDy=0;entryX=0.5;entryY=0;entryDx=0;entryDy=0;" edge="1" parent="1" source="NeLMezr21SVfmH-1DF2Q-20" target="NeLMezr21SVfmH-1DF2Q-9">
          <mxGeometry relative="1" as="geometry">
            <mxPoint x="261.5614318847656" y="-3.0460662841796875" as="targetPoint" />
          </mxGeometry>
        </mxCell>
        <mxCell id="NeLMezr21SVfmH-1DF2Q-33" value="&lt;span style=&quot;font-family: &amp;quot;Times New Roman&amp;quot;;&quot;&gt;Gated Temporal卷积层&lt;/span&gt;" style="text;html=1;align=center;verticalAlign=middle;whiteSpace=wrap;rounded=0;" vertex="1" parent="1">
          <mxGeometry x="317.75" y="15" width="147" height="30" as="geometry" />
        </mxCell>
      </root>
    </mxGraphModel>
  </diagram>
</mxfile>
